<svg width="600" height="400" xmlns="http://www.w3.org/2000/svg">
  <!-- Background -->
  <rect width="600" height="400" fill="#1A1A1A" rx="10" ry="10"/>
  
  <!-- Decorative Elements -->
  <rect x="50" y="80" width="500" height="280" rx="20" ry="20" fill="#1F1F1F" stroke="#8B5CF6" stroke-width="2" opacity="0.5"/>
  
  <!-- Abstract Code Lines -->
  <g stroke="#8B5CF6" stroke-width="1.5" opacity="0.5">
    <line x1="80" y1="120" x2="180" y2="120"/>
    <line x1="100" y1="140" x2="230" y2="140"/>
    <line x1="80" y1="160" x2="200" y2="160"/>
    <line x1="120" y1="180" x2="260" y2="180"/>
    <line x1="80" y1="200" x2="170" y2="200"/>
    <line x1="100" y1="220" x2="240" y2="220"/>
    <line x1="80" y1="240" x2="210" y2="240"/>
    <line x1="120" y1="260" x2="280" y2="260"/>
    <line x1="80" y1="280" x2="190" y2="280"/>
    <line x1="100" y1="300" x2="220" y2="300"/>
    <line x1="80" y1="320" x2="180" y2="320"/>
  </g>
  
  <!-- Team Members (Abstract) -->
  <g>
    <!-- Person 1 -->
    <circle cx="380" cy="150" r="40" fill="#6D28D9" opacity="0.8"/>
    <circle cx="380" cy="120" r="20" fill="#F9FAFB"/>
    <rect x="360" y="150" width="40" height="60" rx="10" ry="10" fill="#F9FAFB"/>
    
    <!-- Person 2 -->
    <circle cx="460" cy="180" r="40" fill="#8B5CF6" opacity="0.8"/>
    <circle cx="460" cy="150" r="20" fill="#F9FAFB"/>
    <rect x="440" y="180" width="40" height="60" rx="10" ry="10" fill="#F9FAFB"/>
    
    <!-- Person 3 -->
    <circle cx="400" cy="250" r="40" fill="#A78BFA" opacity="0.8"/>
    <circle cx="400" cy="220" r="20" fill="#F9FAFB"/>
    <rect x="380" y="250" width="40" height="60" rx="10" ry="10" fill="#F9FAFB"/>
  </g>
  
  <!-- Connected Lines -->
  <g stroke="#EC4899" stroke-width="2" opacity="0.6">
    <line x1="380" y1="180" x2="430" y2="190"/>
    <line x1="450" y1="240" x2="420" y2="250"/>
    <line x1="390" y1="250" x2="370" y2="180"/>
  </g>
  
  <!-- Decorative Shapes -->
  <g fill="#EC4899" opacity="0.2">
    <circle cx="100" cy="70" r="30"/>
    <circle cx="500" cy="350" r="40"/>
    <circle cx="30" cy="350" r="20"/>
    <circle cx="550" cy="100" r="25"/>
  </g>
  
  <!-- Text "TEAM" -->
  <text x="300" y="370" font-family="Arial, sans-serif" font-size="24" font-weight="bold" text-anchor="middle" fill="#FFFFFF">COLLABORATION</text>
</svg> 